<svg width="144" height="144" viewBox="0 0 144 144" fill="none" xmlns="http://www.w3.org/2000/svg">
<rect width="144" height="144" rx="30" fill="#F3F3F3"/>
<mask id="path-2-outside-1_7_73" maskUnits="userSpaceOnUse" x="21" y="50" width="102" height="37" fill="black">
<rect fill="white" x="21" y="50" width="102" height="37"/>
<path d="M69.312 71.208C66.752 68.776 64.256 66.856 61.824 65.448C59.456 64.04 56.512 63.336 52.992 63.336C49.216 63.336 45.728 64.52 42.528 66.888C39.392 69.192 36.832 72.232 34.848 76.008L28.032 72.36C31.04 66.856 34.688 62.696 38.976 59.88C43.328 57 48.032 55.56 53.088 55.56C57.44 55.56 61.28 56.456 64.608 58.248C68 59.976 71.36 62.504 74.688 65.832C77.248 68.264 79.744 70.184 82.176 71.592C84.608 73 87.552 73.704 91.008 73.704C94.784 73.704 98.24 72.552 101.376 70.248C104.576 67.88 107.168 64.808 109.152 61.032L115.968 64.68C112.96 70.184 109.28 74.376 104.928 77.256C100.64 80.072 95.968 81.48 90.912 81.48C86.624 81.48 82.784 80.616 79.392 78.888C76 77.096 72.64 74.536 69.312 71.208Z"/>
</mask>
<path d="M69.312 71.208C66.752 68.776 64.256 66.856 61.824 65.448C59.456 64.04 56.512 63.336 52.992 63.336C49.216 63.336 45.728 64.52 42.528 66.888C39.392 69.192 36.832 72.232 34.848 76.008L28.032 72.36C31.04 66.856 34.688 62.696 38.976 59.88C43.328 57 48.032 55.56 53.088 55.56C57.44 55.56 61.28 56.456 64.608 58.248C68 59.976 71.36 62.504 74.688 65.832C77.248 68.264 79.744 70.184 82.176 71.592C84.608 73 87.552 73.704 91.008 73.704C94.784 73.704 98.24 72.552 101.376 70.248C104.576 67.88 107.168 64.808 109.152 61.032L115.968 64.68C112.96 70.184 109.28 74.376 104.928 77.256C100.64 80.072 95.968 81.48 90.912 81.48C86.624 81.48 82.784 80.616 79.392 78.888C76 77.096 72.64 74.536 69.312 71.208Z" fill="black"/>
<path d="M69.312 71.208L72.8475 67.6725L72.8022 67.6271L72.7557 67.583L69.312 71.208ZM61.824 65.448L59.2686 69.7457L59.2936 69.7605L59.3188 69.7751L61.824 65.448ZM42.528 66.888L45.4884 70.9174L45.4953 70.9123L45.5022 70.9072L42.528 66.888ZM34.848 76.008L32.4886 80.4163L36.9307 82.7938L39.2742 78.3336L34.848 76.008ZM28.032 72.36L23.6445 69.9622L21.2256 74.3882L25.6726 76.7683L28.032 72.36ZM38.976 59.88L41.7206 64.0593L41.728 64.0545L41.7353 64.0497L38.976 59.88ZM64.608 58.248L62.2375 62.6504L62.2876 62.6773L62.3384 62.7032L64.608 58.248ZM74.688 65.832L71.1525 69.3675L71.1978 69.4129L71.2443 69.457L74.688 65.832ZM82.176 71.592L79.6708 75.9191H79.6708L82.176 71.592ZM101.376 70.248L104.336 74.2774L104.343 74.2723L104.35 74.2672L101.376 70.248ZM109.152 61.032L111.511 56.6237L107.069 54.2462L104.726 58.7064L109.152 61.032ZM115.968 64.68L120.356 67.0778L122.774 62.6518L118.327 60.2717L115.968 64.68ZM104.928 77.256L107.673 81.4353L107.68 81.4305L107.687 81.4257L104.928 77.256ZM79.392 78.888L77.0564 83.309L77.0893 83.3263L77.1224 83.3432L79.392 78.888ZM69.312 71.208L72.7557 67.583C69.9805 64.9465 67.174 62.7679 64.3292 61.1209L61.824 65.448L59.3188 69.7751C61.338 70.9441 63.5235 72.6055 65.8683 74.833L69.312 71.208ZM61.824 65.448L64.3794 61.1503C61.0514 59.1715 57.1658 58.336 52.992 58.336V63.336V68.336C55.8582 68.336 57.8606 68.9085 59.2686 69.7457L61.824 65.448ZM52.992 63.336V58.336C48.0848 58.336 43.5648 59.9007 39.5538 62.8688L42.528 66.888L45.5022 70.9072C47.8912 69.1393 50.3472 68.336 52.992 68.336V63.336ZM42.528 66.888L39.5676 62.8586C35.7631 65.6538 32.7243 69.3001 30.4218 73.6824L34.848 76.008L39.2742 78.3336C40.9397 75.1639 43.0209 72.7302 45.4884 70.9174L42.528 66.888ZM34.848 76.008L37.2074 71.5997L30.3914 67.9517L28.032 72.36L25.6726 76.7683L32.4886 80.4163L34.848 76.008ZM28.032 72.36L32.4195 74.7578C35.1208 69.815 38.2546 66.3356 41.7206 64.0593L38.976 59.88L36.2314 55.7007C31.1214 59.0564 26.9592 63.897 23.6445 69.9622L28.032 72.36ZM38.976 59.88L41.7353 64.0497C45.2968 61.6928 49.0462 60.56 53.088 60.56V55.56V50.56C47.0178 50.56 41.3592 52.3072 36.2167 55.7103L38.976 59.88ZM53.088 55.56V60.56C56.7388 60.56 59.7416 61.3064 62.2375 62.6504L64.608 58.248L66.9785 53.8456C62.8184 51.6056 58.1412 50.56 53.088 50.56V55.56ZM64.608 58.248L62.3384 62.7032C65.1674 64.1444 68.1114 66.3265 71.1525 69.3675L74.688 65.832L78.2235 62.2965C74.6086 58.6815 70.8326 55.8076 66.8776 53.7928L64.608 58.248ZM74.688 65.832L71.2443 69.457C74.0195 72.0935 76.826 74.2721 79.6708 75.9191L82.176 71.592L84.6812 67.2649C82.662 66.0959 80.4765 64.4345 78.1317 62.207L74.688 65.832ZM82.176 71.592L79.6708 75.9191C83.0209 77.8587 86.8731 78.704 91.008 78.704V73.704V68.704C88.2309 68.704 86.1951 68.1413 84.6812 67.2649L82.176 71.592ZM91.008 73.704V78.704C95.8833 78.704 100.37 77.1913 104.336 74.2774L101.376 70.248L98.4156 66.2186C96.1098 67.9127 93.6847 68.704 91.008 68.704V73.704ZM101.376 70.248L104.35 74.2672C108.198 71.4197 111.27 67.7517 113.578 63.3576L109.152 61.032L104.726 58.7064C103.067 61.8643 100.954 64.3403 98.4018 66.2288L101.376 70.248ZM109.152 61.032L106.793 65.4403L113.609 69.0883L115.968 64.68L118.327 60.2717L111.511 56.6237L109.152 61.032ZM115.968 64.68L111.58 62.2822C108.885 67.2151 105.718 70.7378 102.169 73.0863L104.928 77.256L107.687 81.4257C112.842 78.0142 117.035 73.1529 120.356 67.0778L115.968 64.68ZM104.928 77.256L102.183 73.0767C98.6979 75.3656 94.9776 76.48 90.912 76.48V81.48V86.48C96.9584 86.48 102.582 84.7784 107.673 81.4353L104.928 77.256ZM90.912 81.48V76.48C87.3122 76.48 84.2661 75.7596 81.6616 74.4328L79.392 78.888L77.1224 83.3432C81.3019 85.4724 85.9358 86.48 90.912 86.48V81.48ZM79.392 78.888L81.7276 74.467C78.8645 72.9544 75.899 70.724 72.8475 67.6725L69.312 71.208L65.7765 74.7435C69.381 78.348 73.1355 81.2375 77.0564 83.309L79.392 78.888Z" fill="black" mask="url(#path-2-outside-1_7_73)"/>
</svg>
