<svg width="200" height="200" viewBox="0 0 200 200" fill="none" xmlns="http://www.w3.org/2000/svg">
  <rect width="200" height="200" rx="30" fill="#07C160"/>
  <path d="M60 100C60 77.9086 77.9086 60 100 60V60C122.091 60 140 77.9086 140 100V140H100C77.9086 140 60 122.091 60 100V100Z" fill="white"/>
  <path d="M100 60C122.091 60 140 77.9086 140 100C140 122.091 122.091 140 100 140C77.9086 140 60 122.091 60 100C60 77.9086 77.9086 60 100 60ZM100 80C88.9543 80 80 88.9543 80 100C80 111.046 88.9543 120 100 120C111.046 120 120 111.046 120 100C120 88.9543 111.046 80 100 80Z" fill="white"/>
</svg> 